<svg width="1440" height="1688" viewBox="0 0 1440 10" fill="none" xmlns="http://www.w3.org/2000/svg">
<!--    <rect opacity="0.5" y="-0.132812" width="1440" height="1219" fill="#EDEEF2"/>-->
    <path d="M-1072.01 1570.42C-1069.94 1563.6 -1067.34 1556.85 -1064.43 1550.49C-1044.04 1505.34 -1034.69 1450.31 -999.812 1414.36C-963.175 1376.58 -903.16 1363.16 -856.789 1341.7C-703.494 1270.57 -621.558 1105.71 -509.039 979.62C-470.639 936.698 -427.716 897.761 -381.191 863.576C-271.432 782.943 -142.051 729.06 -6.9218 712.121C300.281 673.414 610.166 820.347 916.066 772.596C1260.98 718.713 1522.42 432.741 1850.24 312.865C2086.86 226.33 2349.76 229.703 2584.14 137.266C2722.42 82.7696 2847.58 -4.68513 2946.38 -115.824C3063.19 -247.274 3141.68 -408.693 3254.81 -543.286C3362.88 -671.901 3520.7 -779.054 3686.18 -764.874L3686.18 1570.42L-1072.01 1570.42Z"
          fill="white"/>
    <g opacity="0.5">
        <path d="M-1166.28 1687.74C-1164.54 1680.35 -1162.23 1673 -1159.56 1666.05C-1140.93 1616.7 -1134.7 1557.58 -1100.06 1517.02C-1063.67 1474.4 -1000.79 1456.1 -952.955 1430.17C-794.83 1344.25 -718.857 1163.51 -607.77 1021.93C-569.851 973.731 -526.857 929.458 -479.715 889.994C-368.498 796.906 -234.626 730.926 -92.1562 703.821C231.721 641.99 570.954 777.271 892.838 705.916C1255.77 625.417 1514.36 303.884 1854.68 154.401C2100.31 46.4955 2379.94 32.3702 2622.82 -81.6575C2766.1 -148.889 2893.23 -250.264 2990.74 -375.034C3106.03 -522.603 3178.57 -699.442 3289.73 -850.103C3395.92 -994.07 3556.43 -1118.58 3733.25 -1114.66L3890.56 1367.21L-1166.28 1687.74Z"
              fill="white"/>
    </g>
</svg>
